<svg width="30" height="31" viewBox="0 0 30 31" fill="none" xmlns="http://www.w3.org/2000/svg">
<path d="M29.9967 6.94053C29.7456 7.97614 28.8352 8.49004 28.1891 9.25971C28.096 9.17132 28.0209 9.10171 27.9482 9.02897C27.0369 8.1185 26.1241 7.2096 25.216 6.29679C24.9266 6.00581 24.5918 5.89631 24.2038 6.04258C23.5984 6.27019 23.4623 7.02344 23.9434 7.51074C24.7928 8.37193 25.6524 9.22373 26.5089 10.0787C26.6396 10.2093 26.778 10.3329 26.8844 10.4322C26.4229 10.9 25.9817 11.3474 25.5234 11.812C24.9923 11.2778 24.4307 10.7091 23.8628 10.1459C23.5976 9.88311 23.2793 9.79629 22.9226 9.93005C22.58 10.0583 22.3907 10.3164 22.3563 10.6794C22.3281 10.9821 22.4556 11.2246 22.6692 11.435C23.2175 11.9755 23.7603 12.5222 24.282 13.0432C23.8284 13.4937 23.3841 13.9364 22.8843 14.4331C22.8506 14.3838 22.7959 14.2751 22.7145 14.193C21.8408 13.3138 20.964 12.4385 20.0864 11.5633C19.6053 11.0838 19.0883 11.0376 18.7019 11.4334C18.3296 11.8151 18.382 12.3407 18.8388 12.7983C19.7219 13.6814 20.605 14.5653 21.4896 15.446C21.5655 15.5211 21.6594 15.5782 21.7243 15.6283C21.2479 16.1046 20.8091 16.5434 20.3093 17.0433C20.2374 16.9533 20.1521 16.8242 20.0457 16.7163C19.5944 16.2572 19.1407 15.7996 18.6792 15.3506C18.3022 14.9838 17.768 14.9752 17.4191 15.3154C17.0617 15.6635 17.0671 16.2126 17.4442 16.5966C17.9964 17.159 18.5572 17.7136 19.0969 18.2541C18.6503 18.6999 18.2185 19.1309 17.7735 19.576C17.7187 19.5244 17.6413 19.454 17.567 19.3796C16.6487 18.4629 15.7335 17.5423 14.8121 16.6287C14.5016 16.3213 14.087 16.2603 13.7382 16.448C13.4026 16.6295 13.2086 17.0034 13.3119 17.3874C13.3643 17.583 13.4902 17.7801 13.6333 17.9263C14.5203 18.8329 15.423 19.7246 16.3194 20.6218C16.3937 20.6961 16.4649 20.7735 16.5212 20.8322C16.0683 21.2843 15.6287 21.7239 15.1688 22.1838C14.6377 21.6519 14.0808 21.095 13.5254 20.5365C13.2892 20.2987 13.0099 20.1814 12.6767 20.2557C11.9868 20.409 11.753 21.2248 12.2559 21.7458C12.744 22.2511 13.2477 22.7407 13.7444 23.2382C13.8125 23.3062 13.8766 23.3774 13.9251 23.4298C13.4746 23.8796 13.035 24.3176 12.5226 24.8291C12.4874 24.7697 12.4499 24.6602 12.3756 24.5859C11.4753 23.6785 10.5711 22.7751 9.66453 21.874C9.23511 21.447 8.71573 21.4172 8.34263 21.7903C7.97579 22.1564 8.00707 22.6961 8.4232 23.113C9.39467 24.0861 10.3685 25.0575 11.3165 26.0056C10.8644 26.4577 10.4217 26.8996 9.95707 27.3634C9.44786 26.8519 8.91363 26.2981 8.35671 25.7685C8.20262 25.6223 7.98986 25.4995 7.78493 25.4533C7.4087 25.3689 7.05515 25.5738 6.88542 25.9054C6.71099 26.2472 6.76339 26.6391 7.04889 26.9317C7.53228 27.4276 8.02585 27.9141 8.51862 28.4014C8.5945 28.4765 8.68679 28.5351 8.81898 28.6384C8.24251 29.1781 7.74973 29.7264 7.17013 30.159C6.45912 30.6901 5.43681 30.5876 4.79698 29.9619C3.36088 28.5555 1.93808 27.1358 0.532491 25.6989C-0.163656 24.9879 -0.166785 23.8741 0.469134 23.106C0.555956 23.0012 0.65373 22.905 0.750721 22.8088C7.87175 15.6885 14.9944 8.57061 22.1115 1.44566C22.5323 1.02407 22.9633 0.646269 23.5546 0.5C23.7697 0.5 23.984 0.5 24.1991 0.5C24.7834 0.634536 25.2168 0.992778 25.6274 1.41125C26.7616 2.56732 27.9075 3.71244 29.0636 4.84661C29.4891 5.26352 29.8614 5.69998 29.9967 6.29601C29.9967 6.51111 29.9967 6.72621 29.9967 6.94053Z" fill="#212833"/>
<path d="M0.479943 0.5C1.13463 0.675992 1.78854 0.857459 2.4448 1.02798C3.58523 1.32364 4.73191 1.59897 5.86921 1.9095C7.17859 2.26696 8.17275 3.09764 9.0402 4.07459C7.22709 5.88849 5.42102 7.69456 3.59539 9.52096C2.83589 8.84828 2.10142 8.11459 1.7244 7.13138C1.42248 6.34372 1.21598 5.51851 0.997751 4.70113C0.671579 3.477 0.377477 2.24506 0.05678 1.02015C0.00046248 0.805835 0.015324 0.641576 0.186623 0.5C0.284396 0.5 0.38217 0.5 0.479943 0.5Z" fill="#212833"/>
<path d="M29.9967 27.0825C29.9474 27.2789 29.9028 27.4767 29.8473 27.6715C29.0791 30.3599 25.7846 31.3908 23.668 29.5699C22.9484 28.9504 22.3406 28.201 21.7031 27.5338C23.467 25.77 25.2769 23.96 27.1401 22.0977C27.2269 22.1993 27.3372 22.3464 27.4655 22.4762C27.9168 22.9346 28.3744 23.3875 28.8288 23.8427C29.4327 24.4466 29.8152 25.1646 29.9458 26.0125C29.9529 26.0586 29.9787 26.1017 29.9959 26.1462C29.9967 26.4576 29.9967 26.7696 29.9967 27.0825Z" fill="#212833"/>
<path d="M25.7495 20.844C23.9638 22.6297 22.1585 24.4342 20.3853 26.2074C19.3246 25.1468 18.2405 24.0635 17.1807 23.0036C18.9461 21.2382 20.7568 19.429 22.5457 17.6401C23.6063 18.7008 24.6857 19.7802 25.7495 20.844Z" fill="#212833"/>
<path d="M12.8928 8.00268C11.1383 9.75713 9.33227 11.5632 7.51681 13.3794C6.67283 12.5003 5.8179 11.6109 4.98096 10.7396C6.72211 8.99841 8.53287 7.18921 10.3632 5.35889C11.1939 6.22555 12.0402 7.11099 12.8928 8.00268Z" fill="#212833"/>
</svg>
