<svg width="32" height="31" viewBox="0 0 32 31" fill="none" xmlns="http://www.w3.org/2000/svg">
<path d="M20.9213 30.4992C20.6414 29.9938 20.2835 29.5153 20.099 28.9776C19.7805 28.0504 19.2893 27.8794 18.4118 28.2759C17.0826 28.8759 15.6398 28.3153 15.1897 26.9632C15.0462 26.5336 15.2835 25.9044 15.5034 25.4416C15.941 24.5192 15.7541 23.9334 14.7584 23.6796C13.6783 23.4044 13.3204 22.769 13.3283 21.6384C13.3361 20.5276 13.6334 19.8629 14.7418 19.5902C15.7139 19.3513 16.0411 18.7411 15.4814 17.851C14.8357 16.8245 15.1613 16.1181 15.9654 15.3115C16.7381 14.5366 17.4153 14.3836 18.3227 14.9386C19.2735 15.5205 19.9043 15.1791 20.1376 14.1565C20.4057 12.9834 21.1696 12.8297 22.2229 12.8037C23.3117 12.7761 23.9259 13.1505 24.1813 14.1794C24.4494 15.2571 25.1037 15.4842 26.0033 14.9237C27.0046 14.2992 27.6723 14.6603 28.4426 15.4117C29.22 16.1701 29.391 16.8781 28.8573 17.7855C28.3023 18.7292 28.5821 19.2866 29.6023 19.6256C30.1037 19.7928 30.5476 20.1349 31.0167 20.3983C31.0167 21.26 31.0167 22.1209 31.0167 22.9826C30.5681 23.2057 30.1416 23.5085 29.6678 23.637C28.5411 23.9413 28.3771 24.5232 28.8494 25.5441C29.0686 26.0172 29.2018 26.7512 28.9866 27.1643C28.236 28.6039 27.3199 28.8853 25.8432 28.2515C25.0107 27.8943 24.5306 28.0678 24.2302 28.9256C24.0402 29.4688 23.7501 29.9765 23.5041 30.5C22.6432 30.4992 21.7822 30.4992 20.9213 30.4992ZM22.1015 17.2471C19.6599 17.2746 17.7346 19.2472 17.7685 21.6849C17.8024 24.1219 19.7821 26.0613 22.208 26.0322C24.6141 26.0038 26.5788 23.9894 26.552 21.5769C26.526 19.1518 24.54 17.2195 22.1015 17.2471Z" fill="white"/>
<path d="M9.91198 2.23681C10.8163 2.60815 11.6772 2.96135 12.6706 3.36895C13.1964 3.19393 13.7507 1.89386 14.5249 2.93454C14.7921 3.29326 14.3396 4.18809 13.958 4.78491C14.1827 5.23902 14.4539 5.67579 14.6219 6.14962C14.8931 6.91436 14.9995 7.75953 16.1774 7.61131C16.3674 7.58766 16.8112 8.14111 16.8081 8.42414C16.8049 8.70797 16.3547 9.25038 16.1592 9.22515C14.9609 9.06826 14.8954 9.95442 14.6163 10.701C14.4405 11.1709 14.1804 11.6093 13.9533 12.072C14.2734 12.6846 15.4063 13.2278 14.4421 13.98C14.0936 14.252 13.1972 13.8207 12.6138 13.4715C11.7229 13.8444 10.8328 14.2173 9.88439 14.6146C9.87256 14.8141 9.93642 15.0924 9.82841 15.2627C9.58479 15.6474 9.25603 15.9793 8.96196 16.3318C8.65843 15.9888 8.1444 15.6711 8.10025 15.2974C8.02614 14.6785 7.82352 14.4388 7.24089 14.278C6.57234 14.0935 5.94871 13.7474 5.24941 13.447C4.69359 13.704 4.17324 14.8787 3.40456 13.9319C3.12783 13.5921 3.53701 12.6941 3.90125 12.1044C3.52992 11.2135 3.15858 10.3218 2.78725 9.43092C2.72812 9.51055 2.66978 9.59018 2.61065 9.66981C2.06823 9.24802 1.52581 8.82544 0.983398 8.40364C1.50295 8.00787 2.02251 7.61288 2.54206 7.21711C2.61223 7.30147 2.68318 7.38583 2.75334 7.4694C3.12547 6.5793 3.49838 5.68841 3.8705 4.79831C3.79324 4.8196 3.71597 4.8401 3.63871 4.86138C3.54647 4.18573 3.45423 3.51007 3.36199 2.83442C4.00059 2.90931 4.63919 2.98421 5.27779 3.05911C5.26438 3.16082 5.25098 3.26252 5.23758 3.36422C5.98734 3.067 6.75445 2.80446 7.47662 2.45205C7.72418 2.33142 7.86924 1.98926 8.04584 1.73776C8.34543 1.31203 8.5922 0.555166 8.93516 0.510227C9.75509 0.403794 9.8497 1.14804 9.85364 1.81423C9.85443 1.96718 9.89464 2.11776 9.91198 2.23681ZM11.5566 8.43755C11.5668 6.97113 10.4576 5.83032 8.99902 5.80667C7.53339 5.78302 6.37523 6.88441 6.33975 8.33584C6.3027 9.85114 7.44903 11.0298 8.95566 11.0259C10.4134 11.0227 11.5463 9.89529 11.5566 8.43755Z" fill="white"/>
<path d="M8.04255 25.0862C5.62611 24.6439 3.75367 23.2051 2.99838 20.5001C2.88485 20.0917 2.74767 19.6202 2.85095 19.2402C2.96291 18.8287 3.34292 18.4897 3.60624 18.1191C3.91451 18.4495 4.44352 18.7491 4.49398 19.1149C4.79357 21.2869 5.89732 22.6895 8.16553 23.3099C8.13321 22.9764 8.07171 22.7383 8.09379 22.5081C8.16789 21.7576 8.79152 21.447 9.44746 21.8151C9.51448 21.853 9.57992 21.8995 9.6351 21.9539C12.143 24.4468 12.2408 24.0605 9.90316 26.2901C9.58149 26.5975 8.97679 26.6086 8.50376 26.7568C8.36815 26.268 8.23334 25.7792 8.04255 25.0862Z" fill="white"/>
<path d="M20.4733 5.90291C20.2652 6.49342 20.1958 7.24555 19.9238 7.32833C19.5359 7.44581 18.8823 7.19904 18.5449 6.88841C16.4107 4.92057 16.4076 4.87643 18.5315 2.91963C18.8784 2.60033 19.5146 2.59638 20.0176 2.4458C20.1296 2.91095 20.2415 3.37611 20.4071 4.06753C20.7185 4.1645 21.365 4.29696 21.9516 4.56186C24.111 5.54026 25.3598 7.21796 25.6231 9.58945C25.6933 10.2217 25.7319 10.9392 24.8426 11.003C24.0385 11.0606 23.9848 10.4236 23.8989 9.80863C23.6033 7.68311 22.3868 6.3791 20.4733 5.90291Z" fill="white"/>
<path d="M24.7666 21.6606C24.7509 23.1231 23.6132 24.2449 22.1484 24.2426C20.704 24.2402 19.5348 23.0876 19.5206 21.6527C19.5057 20.1816 20.7411 18.9619 22.2114 18.9958C23.6416 19.0289 24.7816 20.217 24.7666 21.6606Z" fill="white"/>
<path d="M10.1749 8.53747C9.56387 8.87411 9.17914 9.25727 8.84013 9.22021C8.55789 9.18947 8.32925 8.66597 8.07617 8.36008C8.40414 8.09123 8.71241 7.65052 9.06561 7.6111C9.32815 7.58193 9.64902 8.07389 10.1749 8.53747Z" fill="white"/>
</svg>
