<svg width="32" height="31" viewBox="0 0 32 31" fill="none" xmlns="http://www.w3.org/2000/svg">
<path d="M0.887695 23.9301C1.73306 22.788 2.57763 21.6459 3.37497 20.5684C5.1995 22.3803 6.85165 24.0206 8.52191 25.6783C5.73553 29.6068 2.2431 28.8362 0.887695 25.5705C0.887695 25.0234 0.887695 24.4772 0.887695 23.9301Z" fill="#212833"/>
<path d="M15.7641 0.5C17.1062 1.28397 18.4663 2.0396 19.78 2.86764C20.1696 3.11322 20.6742 3.55715 20.6805 3.91843C20.6868 4.27106 20.1869 4.73546 19.7989 4.97238C18.5962 5.70518 17.3494 6.36872 16.1042 7.0299C15.018 7.60606 14.4205 7.29279 14.3938 6.11763C14.3599 4.67564 14.3528 3.23207 14.4056 1.79087C14.4213 1.35638 14.6756 0.929764 14.8204 0.5C15.1345 0.5 15.4493 0.5 15.7641 0.5Z" fill="#212833"/>
<path d="M31.1129 8.23199C29.6127 9.05689 28.125 9.90697 26.6012 10.6862C26.2989 10.8405 25.7574 10.8743 25.4929 10.7059C24.3091 9.95105 23.1607 9.13481 22.0579 8.26741C21.7927 8.05882 21.566 7.511 21.6581 7.22763C21.7533 6.93483 22.2547 6.59086 22.5853 6.58456C25.0899 6.53182 27.5969 6.53734 30.1023 6.57905C30.4415 6.58456 30.776 6.8939 31.1121 7.06234C31.1129 7.45117 31.1129 7.84158 31.1129 8.23199Z" fill="#212833"/>
<path d="M31.1129 14.5577C29.9787 13.8343 28.8445 13.1102 27.4253 12.205C28.8256 11.4966 29.9692 10.9189 31.1129 10.3403C31.1129 11.7461 31.1129 13.1519 31.1129 14.5577Z" fill="#212833"/>
<path d="M19.3315 22.94C19.0143 22.7771 18.7325 22.7243 18.6176 22.5582C17.9438 21.5893 17.1779 21.8302 16.2704 22.2151C14.5765 22.9329 12.8244 23.5138 11.1203 24.2104C10.4891 24.4678 10.0656 24.4371 9.57129 23.9215C8.16235 22.4543 6.71642 21.0194 5.23665 19.6223C4.75572 19.1681 4.69354 18.7895 4.93834 18.2039C5.71994 16.3353 6.42913 14.436 7.21467 12.569C7.4878 11.9204 7.53109 11.4292 6.91242 10.9491C6.42362 10.5705 6.05368 10.0526 6.63063 9.46776C7.20207 8.88844 7.68772 9.25052 8.13874 9.6976C11.972 13.5025 15.8162 17.2972 19.6251 21.1265C19.9029 21.4059 20.0375 21.9286 20.0344 22.3363C20.0312 22.5433 19.5716 22.7456 19.3315 22.94Z" fill="#212833"/>
<path d="M21.5738 10.1353C23.8974 11.7803 26.0163 13.2806 28.4469 15.0004C26.1769 15.0004 24.2484 15.0303 22.3239 14.965C22.0658 14.9563 21.6258 14.4817 21.6085 14.2023C21.5297 12.9366 21.5738 11.6646 21.5738 10.1353Z" fill="#212833"/>
<path d="M7.53857 29.5246C8.44139 28.5265 9.28675 27.6143 10.1054 26.6792C10.6264 26.0841 10.9979 26.2541 11.3773 26.8272C12.0369 27.8244 11.8299 29.2129 10.8838 29.9685C9.8094 30.828 8.55395 30.6195 7.53857 29.5246Z" fill="#212833"/>
<path d="M13.0913 11.7272C14.3625 11.1604 15.7927 11.4005 16.8443 12.4277C17.9454 13.5037 18.2012 14.9339 17.5975 16.2263C16.1044 14.7355 14.5821 13.2156 13.0913 11.7272Z" fill="#212833"/>
</svg>
