<svg width="50" height="51" viewBox="0 0 50 51" fill="none" xmlns="http://www.w3.org/2000/svg">
<path d="M21.7655 36.4019H21.2521V33.0015C21.2521 32.4556 20.8096 32.0131 20.2637 32.0131H19.5133L22.3286 24.4276C22.6623 23.5281 22.5796 22.5355 22.1012 21.7039L19.0514 16.4023C18.5238 15.4852 17.5388 14.9153 16.481 14.9153H12.3558C11.2976 14.9153 10.3127 15.4852 9.78508 16.4023L6.73523 21.7039C6.25725 22.5355 6.17409 23.5281 6.50788 24.4276L9.32312 32.0128H8.57315C8.02727 32.0128 7.58438 32.4553 7.58438 33.0015V36.4019H7.07093C6.42701 36.4019 5.93911 37.0516 6.12336 37.6719L8.89359 47.0053C9.01795 47.4249 9.40361 47.7129 9.84116 47.7129H18.9953C19.4328 47.7129 19.8185 47.4249 19.9429 47.0053L22.7131 37.6719C22.8966 37.0546 22.4125 36.4019 21.7655 36.4019ZM14.4184 23.0471C15.0284 23.0471 15.5247 23.5434 15.5247 24.1533C15.5247 24.7637 15.0284 25.26 14.4184 25.26C13.8081 25.26 13.3118 24.7637 13.3118 24.1533C13.3118 23.5434 13.8081 23.0471 14.4184 23.0471ZM8.36144 23.7394C8.23288 23.3931 8.26493 23.0101 8.44918 22.6896L11.499 17.3884C11.8778 16.7296 12.7914 16.8928 13.4296 16.8928V21.2332C12.2131 21.6463 11.3346 22.7987 11.3346 24.1533C11.3346 25.8539 12.7178 27.2371 14.4184 27.2371C16.1186 27.2371 17.5018 25.8539 17.5018 24.1533C17.5018 22.7987 16.6237 21.6463 15.4068 21.2332V16.8928C16.0725 16.8928 16.9182 16.736 17.3378 17.3884L20.3873 22.6896C20.5715 23.0101 20.6036 23.3927 20.475 23.7394L17.4042 32.0128H11.4323L8.36144 23.7394ZM9.56154 33.9899H19.2749V36.4019H9.56154V33.9899ZM20.4376 38.3909L18.2575 45.7357H15.4068V44.6112C15.4068 43.3416 13.4296 43.3401 13.4296 44.6112V45.7357H10.5789L8.39882 38.3909H20.4376Z"/>
<path d="M25.753 4.41763C24.3984 4.41763 23.246 5.29578 22.8329 6.51266H18.0916V4.81627C18.0916 4.27039 17.6491 3.82788 17.1032 3.82788H11.7336C11.1877 3.82788 10.7449 4.27039 10.7449 4.81627V6.51266H6.00395C5.59082 5.29578 4.4384 4.41763 3.0838 4.41763C1.38321 4.41763 0 5.80084 0 7.50105C0 9.20164 1.38321 10.5849 3.08342 10.5849C4.4384 10.5849 5.59082 9.70633 6.00395 8.48982H10.7449V10.1858C10.7449 10.7317 11.1877 11.1746 11.7336 11.1746H17.1028C17.6487 11.1746 18.0916 10.7317 18.0916 10.1858V8.48982H22.8325C23.2456 9.70633 24.398 10.5849 25.753 10.5849C27.4532 10.5849 28.8364 9.20164 28.8364 7.50105C28.8364 5.80084 27.4532 4.41763 25.753 4.41763ZM3.08342 8.6077C2.47345 8.6077 1.97716 8.1114 1.97716 7.50105C1.97716 6.89108 2.47345 6.39479 3.08342 6.39479C3.69377 6.39479 4.19006 6.89108 4.19006 7.50105C4.19006 8.1114 3.69377 8.6077 3.08342 8.6077ZM16.1144 9.19745H12.722V5.80504H16.1144V9.19745ZM25.753 8.6077C25.1427 8.6077 24.6464 8.1114 24.6464 7.50105C24.6464 6.89108 25.1427 6.39479 25.753 6.39479C26.363 6.39479 26.8593 6.89108 26.8593 7.50105C26.8593 8.1114 26.363 8.6077 25.753 8.6077Z"/>
<path d="M33.72 22.8071C35.0391 22.8071 36.1664 21.9748 36.6066 20.8078H44.0292C44.4691 21.9748 45.5967 22.8071 46.9154 22.8071C48.6156 22.8071 49.9989 21.4235 49.9989 19.7233C49.9989 17.8206 48.2124 16.342 46.344 16.6937L42.5789 9.75629C43.0889 9.20621 43.4013 8.47035 43.4013 7.6624C43.4013 5.96219 42.0181 4.57898 40.3179 4.57898C38.6173 4.57898 37.2341 5.96219 37.2341 7.6624C37.2341 8.46997 37.5465 9.20583 38.0566 9.75629L34.2915 16.6937C32.423 16.342 30.6366 17.8206 30.6366 19.7233C30.6366 21.4235 32.0198 22.8071 33.72 22.8071ZM40.3179 10.7462C40.4964 10.7462 40.6715 10.7298 40.8417 10.7008L44.6217 17.6653C44.3237 17.9968 44.0964 18.3935 43.964 18.8307H36.6714C36.5391 18.3935 36.3117 17.9968 36.0138 17.6653L39.7938 10.7004C39.9639 10.7298 40.139 10.7462 40.3179 10.7462ZM48.0217 19.7233C48.0217 20.3337 47.5254 20.83 46.9154 20.83C46.3055 20.83 45.8088 20.3337 45.8088 19.7233C45.8088 19.1134 46.3051 18.6171 46.9154 18.6171C47.5254 18.6171 48.0217 19.1134 48.0217 19.7233ZM40.3179 6.55614C40.9279 6.55614 41.4242 7.05243 41.4242 7.6624C41.4242 8.27275 40.9279 8.76904 40.3179 8.76904C39.7076 8.76904 39.2113 8.27275 39.2113 7.6624C39.2113 7.05243 39.7076 6.55614 40.3179 6.55614ZM33.72 18.6171C34.3304 18.6171 34.8267 19.1134 34.8267 19.7233C34.8267 20.3337 34.3304 20.83 33.72 20.83C33.11 20.83 32.6138 20.3337 32.6138 19.7233C32.6138 19.1134 33.11 18.6171 33.72 18.6171Z"/>
<path d="M47.905 41.6911V33.8084C49.1215 33.3956 50 32.2428 50 30.8882C50 29.188 48.6168 27.8048 46.9166 27.8048C45.6528 27.8048 44.5652 28.5689 44.0891 29.6591H36.0085C35.5324 28.5689 34.4448 27.8048 33.181 27.8048C31.4808 27.8048 30.0976 29.188 30.0976 30.8882C30.0976 32.2646 31.004 33.4326 32.2506 33.8282V33.8439C32.2506 34.3897 32.6931 34.8322 33.239 34.8322C33.8093 34.8322 34.2339 34.3413 34.2278 33.7889C35.1849 33.4426 35.9226 32.635 36.1725 31.6363H43.9251C44.1795 32.6552 44.9425 33.4742 45.9278 33.8084V41.6911C45.0214 41.9985 44.3039 42.7165 43.996 43.6225H36.1012C35.8002 42.7359 35.1067 42.0287 34.2274 41.7105C34.2281 41.1681 33.794 40.697 33.239 40.697C32.6981 40.697 32.259 41.1318 32.251 41.6712C31.004 42.0664 30.0972 43.2349 30.0972 44.6112C30.0972 46.3114 31.4808 47.6946 33.181 47.6946C34.5356 47.6946 35.688 46.8165 36.1012 45.5996H43.996C44.4092 46.8165 45.5616 47.6946 46.9162 47.6946C48.6164 47.6946 49.9996 46.3114 49.9996 44.6112C50 43.2566 49.1215 42.1038 47.905 41.6911ZM33.181 31.9949C32.571 31.9949 32.0747 31.4986 32.0747 30.8882C32.0747 30.2783 32.571 29.782 33.181 29.782C33.7914 29.782 34.2876 30.2783 34.2876 30.8882C34.2876 31.4986 33.7914 31.9949 33.181 31.9949ZM46.9166 29.782C47.5266 29.782 48.0228 30.2783 48.0228 30.8882C48.0228 31.4986 47.5266 31.9949 46.9166 31.9949C46.3062 31.9949 45.8099 31.4986 45.8099 30.8882C45.8099 30.2783 46.3062 29.782 46.9166 29.782ZM33.181 45.7175C32.571 45.7175 32.0747 45.2212 32.0747 44.6112C32.0747 44.0009 32.571 43.5046 33.181 43.5046C33.7914 43.5046 34.2876 44.0009 34.2876 44.6112C34.2876 45.2212 33.7914 45.7175 33.181 45.7175ZM46.9166 45.7175C46.3062 45.7175 45.8099 45.2212 45.8099 44.6112C45.8099 44.0009 46.3062 43.5046 46.9166 43.5046C47.5266 43.5046 48.0228 44.0009 48.0228 44.6112C48.0228 45.2212 47.5266 45.7175 46.9166 45.7175Z"/>
<path d="M32.8602 38.6629C33.3569 38.87 33.9447 38.6232 34.1499 38.1277C34.3555 37.631 34.1141 37.0439 33.6163 36.8372C33.1196 36.6312 32.5306 36.8753 32.325 37.372C32.1194 37.8706 32.3631 38.4561 32.8602 38.6629Z"/>
<path d="M14.9673 39.8977C14.5035 39.5888 13.8573 39.736 13.5712 40.2125C13.2931 40.6756 13.4495 41.2901 13.9114 41.5667C14.3772 41.8455 15.0024 41.6861 15.274 41.2138C15.5323 40.7652 15.3912 40.1884 14.9673 39.8977Z"/>
</svg>
