<svg width="58" height="59" viewBox="0 0 58 59" fill="none" xmlns="http://www.w3.org/2000/svg">
<g clip-path="url(#clip0_257_193)" filter="url(#filter0_d_257_193)">
<path d="M22.6805 16.2314C22.4989 16.0499 22.2469 15.9453 21.9901 15.9453C21.7333 15.9453 21.4813 16.0498 21.2997 16.2314C21.118 16.4131 21.0135 16.665 21.0135 16.9219C21.0135 17.1787 21.118 17.4307 21.2997 17.6123C21.4813 17.7938 21.7333 17.8984 21.9901 17.8984C22.2469 17.8984 22.4989 17.7939 22.6805 17.6123C22.8622 17.4307 22.9667 17.1796 22.9667 16.9219C22.9667 16.665 22.8622 16.4131 22.6805 16.2314Z" />
<path d="M43.9015 29.2412L36.9539 22.2937C38.456 20.1372 38.2476 17.1424 36.3256 15.2204C35.2804 14.1752 33.8907 13.5995 32.4125 13.5995C31.2655 13.5995 30.1724 13.9475 29.2515 14.5913L22.3048 7.64453C22.0753 7.41504 21.747 7.31436 21.4284 7.37637C21.1098 7.43809 20.8427 7.654 20.7157 7.95254L11.2351 30.2191L6.0913 35.363C4.74267 36.7118 4 38.5049 4 40.4121C4 42.3195 4.74267 44.1126 6.0914 45.4612C7.44003 46.8099 9.23319 47.5526 11.1404 47.5526C13.0477 47.5526 14.8408 46.8099 16.1894 45.4612L17.025 44.6256L22.5136 50.1143C22.7044 50.3049 22.9543 50.4003 23.2042 50.4003C23.4541 50.4003 23.7041 50.3049 23.8947 50.1143L27.6458 46.3632C28.0271 45.9819 28.0271 45.3635 27.6458 44.9821L22.4909 39.8272L43.5941 30.8302C43.8924 30.703 44.1082 30.4359 44.1698 30.1174C44.2314 29.7989 44.1309 29.4706 43.9015 29.2412ZM32.4126 15.5528C33.3691 15.5528 34.2683 15.9253 34.9447 16.6016C36.1014 17.7583 36.2988 19.5157 35.5387 20.8785L30.6667 16.0065C31.1944 15.7109 31.7912 15.5528 32.4126 15.5528ZM14.8083 44.08C13.8285 45.0598 12.5259 45.5994 11.1403 45.5994C9.75477 45.5994 8.45214 45.0599 7.47236 44.08C6.49267 43.1002 5.95312 41.7977 5.95312 40.4121C5.95312 39.0266 6.49267 37.724 7.47245 36.7442L12.0596 32.157L12.1994 32.2968L19.3951 39.4934L14.8083 44.08ZM25.5742 45.6726L23.2041 48.0425L18.406 43.2445L20.776 40.8745L25.5742 45.6726ZM37.6739 31.2308C37.6563 31.21 37.6383 31.1894 37.6188 31.1699L25.2488 18.7999C24.8674 18.4186 24.2491 18.4186 23.8676 18.7999C23.4863 19.1812 23.4863 19.7996 23.8676 20.181L35.7414 32.0547L21.0028 38.3383L13.2163 30.5517L21.9463 10.0483L41.4983 29.6002L37.6739 31.2308Z" />
<path d="M44.5344 7.0663C44.1529 6.68514 43.5347 6.68505 43.1533 7.0663L40.5325 9.68709C40.1512 10.0684 40.1511 10.6868 40.5325 11.0682C40.7233 11.259 40.9731 11.3543 41.2231 11.3543C41.473 11.3543 41.723 11.2589 41.9136 11.0682L44.5344 8.44745C44.9157 8.066 44.9158 7.44764 44.5344 7.0663Z" />
<path d="M39.5163 12.084C39.3347 11.9024 39.0837 11.7979 38.8259 11.7979C38.5691 11.7979 38.3171 11.9023 38.1355 12.084C37.9538 12.2656 37.8493 12.5176 37.8493 12.7744C37.8493 13.0312 37.9538 13.2832 38.1355 13.4648C38.3181 13.6465 38.5691 13.751 38.8259 13.751C39.0827 13.751 39.3347 13.6465 39.5163 13.4648C39.699 13.2832 39.8025 13.0312 39.8025 12.7744C39.8025 12.5176 39.699 12.2656 39.5163 12.084Z" />
<path d="M33.4286 3.19141C32.8892 3.19141 32.452 3.62871 32.452 4.16797V7.75703C32.452 8.29629 32.8892 8.73349 33.4286 8.73349C33.9679 8.73349 34.4051 8.29619 34.4051 7.75693V4.16797C34.4051 3.62871 33.9679 3.19141 33.4286 3.19141Z" />
<path d="M47.4143 17.0421H43.7052C43.1658 17.0421 42.7286 17.4794 42.7286 18.0187C42.7286 18.5579 43.1658 18.9952 43.7052 18.9952H47.4143C47.9536 18.9952 48.3908 18.5579 48.3908 18.0187C48.3908 17.4794 47.9536 17.0421 47.4143 17.0421Z" />
<path d="M46.0131 39.3392C44.3977 39.3392 43.0834 40.6535 43.0834 42.2689C43.0834 43.8843 44.3977 45.1986 46.0131 45.1986C47.6285 45.1986 48.9428 43.8843 48.9428 42.2689C48.9428 40.6535 47.6285 39.3392 46.0131 39.3392ZM46.0131 43.2454C45.4746 43.2454 45.0365 42.8073 45.0365 42.2688C45.0365 41.7303 45.4746 41.2923 46.0131 41.2923C46.5516 41.2923 46.9897 41.7303 46.9897 42.2688C46.9897 42.8073 46.5516 43.2454 46.0131 43.2454Z" />
<path d="M53.6776 43.7133L52.6244 42.7619C52.6366 42.5976 52.6428 42.4329 52.6428 42.2688C52.6428 42.1046 52.6366 41.9399 52.6244 41.7756L53.6776 40.8242C54.0196 40.5153 54.0991 40.0095 53.8683 39.6106L52.2395 36.7945C52.0092 36.396 51.5318 36.2126 51.0939 36.3541L49.746 36.7897C49.4735 36.6037 49.1881 36.4386 48.8914 36.2954L48.5944 34.9093C48.4979 34.459 48.1 34.1373 47.6395 34.1373H44.3866C43.9261 34.1373 43.5281 34.459 43.4317 34.9093L43.1348 36.2954C42.8381 36.4386 42.5526 36.6036 42.2802 36.7897L40.9322 36.3541C40.4941 36.2126 40.017 36.3962 39.7866 36.7945L38.1578 39.6106C37.9272 40.0095 38.0067 40.5153 38.3486 40.8242L39.4018 41.7756C39.3896 41.9399 39.3834 42.1046 39.3834 42.2688C39.3834 42.4329 39.3896 42.5976 39.4018 42.7619L38.3486 43.7133C38.0067 44.0222 37.9272 44.528 38.1578 44.927L39.7866 47.7432C40.017 48.1416 40.4944 48.3249 40.9322 48.1835L42.2802 47.7478C42.5527 47.9339 42.8382 48.099 43.1348 48.2422L43.4317 49.6282C43.5282 50.0785 43.9262 50.4002 44.3866 50.4002H47.6396C48.1002 50.4002 48.4981 50.0785 48.5945 49.6282L48.8915 48.2422C49.1881 48.099 49.4735 47.934 49.7461 47.7478L51.094 48.1835C51.5321 48.3249 52.0093 48.1414 52.2396 47.7432L53.8684 44.927C54.099 44.528 54.0195 44.0222 53.6776 43.7133ZM50.9439 46.0822L49.8683 45.7346C49.554 45.6331 49.21 45.6973 48.9533 45.9049C48.5717 46.214 48.147 46.4597 47.6912 46.6349C47.3832 46.7533 47.156 47.0192 47.0868 47.3418L46.8501 48.4469H45.1761L44.9394 47.3418C44.8702 47.0191 44.6429 46.7533 44.335 46.6349C43.8792 46.4597 43.4545 46.214 43.0729 45.9049C42.8163 45.6971 42.4721 45.633 42.1579 45.7346L41.0822 46.0822L40.2441 44.6329L41.0832 43.8749C41.3277 43.654 41.4444 43.3247 41.3935 42.9991C41.3558 42.7583 41.3366 42.5126 41.3366 42.2687C41.3366 42.0247 41.3558 41.7789 41.3935 41.5382C41.4444 41.2126 41.3277 40.8833 41.0832 40.6624L40.2441 39.9044L41.0822 38.4551L42.1579 38.8027C42.4721 38.9043 42.8163 38.8402 43.0728 38.6324C43.4543 38.3235 43.8789 38.0778 44.335 37.9024C44.6429 37.7839 44.8701 37.518 44.9393 37.1955L45.176 36.0905H46.85L47.0867 37.1955C47.1559 37.5181 47.3831 37.7839 47.691 37.9024C48.1471 38.0778 48.5718 38.3235 48.9532 38.6324C49.2098 38.8402 49.5538 38.9041 49.8681 38.8027L50.9437 38.4551L51.7819 39.9044L50.9428 40.6624C50.6984 40.8833 50.5818 41.2126 50.6327 41.5382C50.6704 41.779 50.6895 42.0247 50.6895 42.2687C50.6895 42.5126 50.6704 42.7584 50.6327 42.9991C50.5818 43.3247 50.6984 43.654 50.943 43.8749L51.7821 44.6329L50.9439 46.0822Z" />
<path d="M53.9229 7.70297L51.0918 0.997313C50.9392 0.635693 50.5847 0.400635 50.1921 0.400635C49.7995 0.400635 49.4452 0.635693 49.2924 0.997313L46.4615 7.70306C46.2517 8.19994 46.4844 8.77279 46.9814 8.98255C47.1054 9.0349 47.2341 9.0597 47.3608 9.0597C47.7415 9.0597 48.1034 8.83548 48.2609 8.46273L48.6151 7.62377H51.7693L52.1235 8.46273C52.3332 8.95951 52.9061 9.19232 53.403 8.98255C53.8998 8.77269 54.1327 8.19984 53.9229 7.70297ZM49.4396 5.67065L50.1921 3.88803L50.9447 5.67065H49.4396Z" />
<path d="M14.5234 0.400513H6.36709C5.06191 0.400415 4 1.46223 4 2.7675V9.94814C4 11.2533 5.06191 12.3152 6.36709 12.3152H14.5235C15.8287 12.3152 16.8906 11.2533 16.8906 9.94814V2.7675C16.8905 1.46233 15.8286 0.400513 14.5234 0.400513ZM14.9374 9.94805C14.9374 10.1764 14.7517 10.362 14.5234 10.362H6.36709C6.13886 10.362 5.95312 10.1764 5.95312 9.94805V2.7675C5.95312 2.53928 6.13877 2.35363 6.36709 2.35363H14.5235C14.7517 2.35363 14.9375 2.53928 14.9375 2.7675V9.94805H14.9374Z" />
<path d="M12.1681 4.55707L10.681 3.69857C10.03 3.32269 9.25253 3.3226 8.60146 3.69857C7.95038 4.07455 7.56161 4.74769 7.56161 5.49954V7.21653C7.56171 7.96839 7.95048 8.64153 8.60155 9.0175C8.92704 9.20549 9.28417 9.29944 9.6413 9.29944C9.99843 9.29944 10.3556 9.20549 10.681 9.0175L12.1681 8.15901C12.8191 7.78303 13.2079 7.10979 13.2079 6.35804C13.2078 5.60628 12.8191 4.93294 12.1681 4.55707ZM11.1916 6.46751L9.70458 7.326C9.68729 7.33606 9.6413 7.36253 9.57811 7.326C9.51483 7.28948 9.51483 7.23645 9.51483 7.21643V5.49945C9.51483 5.47943 9.51483 5.4264 9.57811 5.38988C9.60224 5.37591 9.62382 5.37122 9.64227 5.37122C9.67226 5.37122 9.69393 5.38372 9.70458 5.38988L11.1916 6.24837C11.2089 6.25843 11.2549 6.28489 11.2549 6.35794C11.2549 6.43099 11.2089 6.45755 11.1916 6.46751Z" />
<path d="M10.4502 21.6864H9.74541C9.20605 21.6864 8.76884 22.1237 8.76884 22.663C8.76884 23.2022 9.20605 23.6395 9.74541 23.6395H10.4502C10.9895 23.6395 11.4267 23.2022 11.4267 22.663C11.4267 22.1237 10.9895 21.6864 10.4502 21.6864Z" />
<path d="M7.71338 18.9795C7.17402 18.9795 6.73682 19.4168 6.73682 19.9561V20.5773C6.73682 21.1166 7.17402 21.5539 7.71338 21.5539C8.25273 21.5539 8.68994 21.1166 8.68994 20.5773V19.9561C8.68994 19.4168 8.25273 18.9795 7.71338 18.9795Z" />
<path d="M5.59795 21.6864H4.97656C4.43721 21.6864 4 22.1237 4 22.663C4 23.2022 4.43721 23.6395 4.97656 23.6395H5.59795C6.1373 23.6395 6.57451 23.2022 6.57451 22.663C6.57451 22.1237 6.1373 21.6864 5.59795 21.6864Z" />
<path d="M7.71338 23.7402C7.17402 23.7402 6.73682 24.1775 6.73682 24.7168V25.4298C6.73682 25.969 7.17402 26.4063 7.71338 26.4063C8.25273 26.4063 8.68994 25.969 8.68994 25.4298V24.7168C8.68994 24.1775 8.25273 23.7402 7.71338 23.7402Z" />
</g>
<defs>
<filter id="filter0_d_257_193" x="0" y="0.400391" width="58" height="58" filterUnits="userSpaceOnUse" color-interpolation-filters="sRGB">
<feFlood flood-opacity="0" result="BackgroundImageFix"/>
<feColorMatrix in="SourceAlpha" type="matrix" values="0 0 0 0 0 0 0 0 0 0 0 0 0 0 0 0 0 0 127 0" result="hardAlpha"/>
<feOffset dy="4"/>
<feGaussianBlur stdDeviation="2"/>
<feComposite in2="hardAlpha" operator="out"/>
<feColorMatrix type="matrix" values="0 0 0 0 0 0 0 0 0 0 0 0 0 0 0 0 0 0 0.25 0"/>
<feBlend mode="normal" in2="BackgroundImageFix" result="effect1_dropShadow_257_193"/>
<feBlend mode="normal" in="SourceGraphic" in2="effect1_dropShadow_257_193" result="shape"/>
</filter>
<clipPath id="clip0_257_193">
<rect width="50" height="50" fill="white" transform="translate(4 0.400391)"/>
</clipPath>
</defs>
</svg>
