<svg width="50" height="51" viewBox="0 0 50 51" fill="none" xmlns="http://www.w3.org/2000/svg">
<g clip-path="url(#clip0_257_239)">
<path d="M30.3673 31.1569C30.1102 31.1569 29.8584 31.2614 29.6768 31.443C29.4952 31.6245 29.3907 31.8767 29.3907 32.1334C29.3907 32.3902 29.4949 32.6423 29.6768 32.8239C29.8584 33.0055 30.1102 33.11 30.3673 33.11C30.624 33.11 30.8762 33.0055 31.0574 32.8239C31.2393 32.6423 31.3438 32.3902 31.3438 32.1334C31.3438 31.8767 31.2393 31.6245 31.0574 31.443C30.8762 31.2614 30.624 31.1569 30.3673 31.1569Z" />
<path d="M40.0654 37.3923C39.8087 37.3923 39.5565 37.4957 39.3749 37.6773C39.1933 37.8589 39.0888 38.111 39.0888 38.3689C39.0888 38.6256 39.1933 38.8766 39.3749 39.0582C39.5576 39.2409 39.8087 39.3443 40.0654 39.3443C40.3221 39.3443 40.5743 39.2409 40.7558 39.0582C40.9386 38.8766 41.0419 38.6256 41.0419 38.3689C41.0419 38.111 40.9386 37.86 40.7558 37.6773C40.5743 37.4957 40.3233 37.3923 40.0654 37.3923Z" />
<path d="M40.0505 19.7135C38.0043 19.7135 36.3396 21.3782 36.3396 23.4244C36.3396 25.1384 37.5076 26.5838 39.0892 27.0083V34.2258C39.0892 34.7652 39.5264 35.2023 40.0658 35.2023C40.6048 35.2023 41.0423 34.7652 41.0423 34.2258V27C42.6083 26.5647 43.7614 25.1273 43.7614 23.4244C43.7614 21.3782 42.0967 19.7135 40.0505 19.7135ZM40.0505 25.1823C39.0812 25.1823 38.2927 24.3938 38.2927 23.4244C38.2927 22.4555 39.0812 21.6666 40.0505 21.6666C41.0198 21.6666 41.8083 22.4555 41.8083 23.4244C41.8083 24.3938 41.0198 25.1823 40.0505 25.1823Z" />
<path d="M13.6669 21.9772C13.6669 19.931 12.0022 18.2662 9.95598 18.2662C7.90977 18.2662 6.24504 19.931 6.24504 21.9772C6.24504 23.6911 7.4131 25.1365 8.99467 25.5611V32.7785C8.99467 33.3179 9.43184 33.7551 9.97124 33.7551C10.5106 33.7551 10.9478 33.3179 10.9478 32.7785V25.5523C12.5137 25.1174 13.6669 23.6801 13.6669 21.9772ZM9.95598 23.735C8.98666 23.735 8.19817 22.9465 8.19817 21.9772C8.19817 21.0079 8.98666 20.2194 9.95598 20.2194C10.9253 20.2194 11.7138 21.0079 11.7138 21.9772C11.7138 22.9465 10.9253 23.735 9.95598 23.735Z" />
<path d="M19.6465 28.5201C20.1855 28.5201 20.623 28.0829 20.623 27.5435V23.4244C20.623 22.8854 20.1855 22.4479 19.6465 22.4479C19.1071 22.4479 18.6699 22.8854 18.6699 23.4244V27.5435C18.6699 28.0829 19.1071 28.5201 19.6465 28.5201Z" />
<path d="M49.0234 41.9967H48.0469V17.778C48.0469 15.5162 46.207 13.6764 43.9453 13.6764H31.3438V8.27783C33.1211 7.82846 34.4402 6.21637 34.4402 4.30139C34.4402 2.03966 32.6 0.199829 30.3387 0.199829C28.0769 0.199829 26.2371 2.03966 26.2371 4.30139C26.2371 6.23659 27.5848 7.86203 29.3907 8.29118V13.6764H20.623V11.8114C22.2042 11.3868 23.3723 9.94142 23.3723 8.22748C23.3723 6.18166 21.7075 4.51654 19.6613 4.51654C17.6151 4.51654 15.9504 6.18166 15.9504 8.22748C15.9504 9.93036 17.1036 11.3681 18.6699 11.803V13.6764H6.05469C3.79295 13.6764 1.95312 15.5162 1.95312 17.778V41.9967H0.976562C0.437164 41.9967 0 42.4339 0 42.9733V45.1217C0 47.9217 2.27814 50.1998 5.07812 50.1998H44.9219C47.7219 50.1998 50 47.9217 50 45.1217V42.9733C50 42.4339 49.5628 41.9967 49.0234 41.9967ZM28.1902 4.30139C28.1902 3.11655 29.1538 2.15295 30.3387 2.15295C31.5231 2.15295 32.4871 3.11655 32.4871 4.30139C32.4871 5.48624 31.5231 6.44983 30.3387 6.44983C29.1538 6.44983 28.1902 5.48624 28.1902 4.30139ZM17.9035 8.22748C17.9035 7.25854 18.692 6.46967 19.6613 6.46967C20.6306 6.46967 21.4191 7.25854 21.4191 8.22748C21.4191 9.19679 20.6306 9.98529 19.6613 9.98529C18.692 9.98529 17.9035 9.19679 17.9035 8.22748ZM3.90625 17.778C3.90625 16.5931 4.86984 15.6295 6.05469 15.6295H18.6699V19.2428C18.6699 19.7822 19.1071 20.2194 19.6465 20.2194C20.1855 20.2194 20.623 19.7822 20.623 19.2428V15.6295H29.3907V28.4225C29.3907 28.9619 29.8279 29.399 30.3673 29.399C30.9063 29.399 31.3438 28.9619 31.3438 28.4225V15.6295H43.9453C45.1302 15.6295 46.0938 16.5931 46.0938 17.778V41.9967H3.90625V17.778ZM48.0469 45.1217C48.0469 46.8448 46.645 48.2467 44.9219 48.2467H5.07812C3.35503 48.2467 1.95312 46.8448 1.95312 45.1217V43.9498H48.0469V45.1217Z" />
<path d="M28.2879 45.1217H21.7121C21.1731 45.1217 20.7355 45.5589 20.7355 46.0983C20.7355 46.6377 21.1731 47.0748 21.7121 47.0748H28.2879C28.8269 47.0748 29.2645 46.6377 29.2645 46.0983C29.2645 45.5589 28.8269 45.1217 28.2879 45.1217Z" />
<path d="M19.6465 29.6204C17.469 29.6204 15.4221 30.4684 13.8821 32.008C13.501 32.3895 13.501 33.0078 13.8821 33.3889C14.2635 33.7704 14.8819 33.7704 15.2634 33.3889C16.4341 32.2182 17.9909 31.5735 19.6465 31.5735C21.302 31.5735 22.8588 32.2182 24.0295 33.3889C24.2203 33.5796 24.4701 33.675 24.72 33.675C24.9699 33.675 25.2201 33.5796 25.4105 33.3889C25.7919 33.0078 25.7919 32.3895 25.4105 32.008C23.8709 30.4684 21.8239 29.6204 19.6465 29.6204Z" />
<path d="M16.5291 34.6546C16.1476 35.0361 16.1476 35.6544 16.5291 36.0359C16.9106 36.4174 17.5285 36.4174 17.91 36.0359C18.8675 35.0784 20.4254 35.0784 21.3829 36.0359C21.5733 36.2267 21.8235 36.322 22.0734 36.322C22.3232 36.322 22.5731 36.2263 22.7638 36.0359C23.1453 35.6544 23.1453 35.0361 22.7638 34.6546C21.0449 32.9361 18.248 32.9361 16.5291 34.6546Z" />
<path d="M19.6465 36.8785C19.3897 36.8785 19.1376 36.9831 18.956 37.1646C18.7744 37.3462 18.6699 37.5984 18.6699 37.8551C18.6699 38.1118 18.7744 38.364 18.956 38.5456C19.1376 38.7271 19.3897 38.8317 19.6465 38.8317C19.9032 38.8317 20.1553 38.7271 20.3369 38.5456C20.5185 38.364 20.623 38.1118 20.623 37.8551C20.623 37.5984 20.5185 37.3462 20.3369 37.1646C20.1553 36.9831 19.9032 36.8785 19.6465 36.8785Z" />
</g>
<defs>
<clipPath id="clip0_257_239">
<rect width="50" height="50" fill="white" transform="translate(0 0.199829)"/>
</clipPath>
</defs>
</svg>
