<svg width="48" height="51" viewBox="0 0 48 51" fill="none" xmlns="http://www.w3.org/2000/svg">
<path d="M31.6343 23.7818C31.6753 23.2442 31.2727 22.7751 30.735 22.7341C30.1974 22.6932 29.7284 23.0958 29.6874 23.6334C29.6464 24.171 30.049 24.64 30.5866 24.681C31.1243 24.722 31.5933 24.3194 31.6343 23.7818Z" />
<path d="M47.2133 25.1006C47.2133 24.7565 47.0325 24.4376 46.7371 24.261L39.1811 19.7407L46.7371 15.2205C47.0324 15.0439 47.2133 14.725 47.2133 14.3809C47.2133 14.0367 47.0325 13.7179 46.7371 13.5412L24.5023 0.23938C24.193 0.0543213 23.8071 0.0543213 23.4976 0.23938L1.26279 13.5411C0.96748 13.7178 0.786621 14.0366 0.786621 14.3808C0.786621 14.7249 0.967383 15.0438 1.26279 15.2204L8.81875 19.7406L1.26279 24.2609C0.96748 24.4375 0.786621 24.7564 0.786621 25.1005C0.786621 25.4446 0.967383 25.7635 1.26279 25.9402L8.81914 30.4605L1.26279 34.9809C0.96748 35.1575 0.786621 35.4764 0.786621 35.8205C0.786621 36.1647 0.967383 36.4835 1.26279 36.6602L23.4976 49.9615C23.6523 50.0543 23.8262 50.1006 24 50.1006C24.1738 50.1006 24.3476 50.0543 24.5023 49.9618L46.7372 36.6605C47.0325 36.4838 47.2134 36.165 47.2134 35.8208C47.2134 35.4767 47.0326 35.1578 46.7372 34.9812L39.1808 30.4608L46.7372 25.9404C47.0325 25.7636 47.2133 25.4447 47.2133 25.1006ZM44.3289 35.8208L24 47.9819L3.67109 35.8208L10.7251 31.6009L23.4976 39.2417C23.6523 39.3343 23.8262 39.3805 24 39.3805C24.1738 39.3805 24.3476 39.3342 24.5023 39.2417L37.2749 31.6009L44.3289 35.8208ZM24 37.2617L3.67109 25.1006L10.7247 20.8809L23.4976 28.5221C23.6523 28.6147 23.8262 28.6609 24 28.6609C24.1738 28.6609 24.3477 28.6146 24.5023 28.5221L27.4279 26.7719C27.8917 26.4945 28.0428 25.8936 27.7653 25.4299C27.4878 24.9661 26.887 24.8151 26.4232 25.0925L24 26.5422L3.67109 14.3808L24 2.21926L44.3289 14.3808L33.909 20.6143C33.4452 20.8917 33.2942 21.4926 33.5716 21.9563C33.849 22.4199 34.4497 22.5711 34.9137 22.2936L37.2752 20.8808L44.3289 25.1005L24 37.2617Z" />
</svg>
