<svg width="100" height="101" viewBox="0 0 100 101" fill="none" xmlns="http://www.w3.org/2000/svg">
<path d="M45.1474 0.40332C48.4085 0.40332 51.6501 0.40332 54.9112 0.40332C55.0283 0.461903 55.126 0.540012 55.2431 0.579067C58.2894 1.51638 59.7735 3.50818 59.793 6.69116C59.793 7.15981 59.793 7.648 59.793 8.19477C60.2812 8.19477 60.6717 8.19477 61.0428 8.19477C71.9 8.19477 82.7573 8.19477 93.6145 8.19477C95.4111 8.19477 97.1099 8.60484 98.2816 9.97176C99.0432 10.8505 99.4532 12.0221 100 13.0571C100 13.7015 100 14.3654 100 15.0098C99.4728 16.7673 98.6331 18.3295 96.8951 19.1497C96.2117 19.4621 96.075 19.8722 96.075 20.5556C96.0945 36.0799 96.0945 51.6043 96.0945 67.1286C96.0945 67.3629 96.0555 67.5972 96.114 67.812C96.1531 67.9683 96.2507 68.2026 96.3874 68.2612C98.3792 69.1008 99.4142 70.7021 100 72.6939C100 73.3383 100 74.0022 100 74.6466C98.3792 78.6107 97.0318 79.5285 92.7163 79.5285C79.5353 79.5285 66.3738 79.5285 53.1927 79.5285C52.8217 79.5285 52.4312 79.5285 51.9625 79.5285C51.9625 82.4186 51.9625 85.1915 51.9625 87.9839C51.9625 88.1401 51.9039 88.3549 51.982 88.4525C52.1773 88.7064 52.3921 88.9798 52.6655 89.1165C55.1064 90.4248 56.3171 93.061 55.6727 95.6777C55.0283 98.3139 52.685 100.169 49.9902 100.169C47.315 100.169 44.9522 98.3139 44.3273 95.6777C43.6829 93.0415 44.8936 90.3857 47.354 89.1555C47.9203 88.8626 48.057 88.5502 48.057 87.9643C48.0375 85.4258 48.0375 82.9067 48.0375 80.3682C48.0375 80.0948 47.9984 79.8214 47.9789 79.509C47.4907 79.509 47.1002 79.509 46.7096 79.509C33.2748 79.509 19.8399 79.509 6.405 79.509C4.58895 79.509 2.90959 79.0989 1.73794 77.732C0.976372 76.8532 0.566296 75.6816 0 74.6466C0 74.0022 0 73.3383 0 72.6939C0.527241 70.9364 1.36692 69.3742 3.10486 68.5541C3.78832 68.2416 3.92501 67.8316 3.92501 67.1481C3.94454 51.6238 3.94454 36.0995 3.94454 20.5752C3.94454 20.3408 3.9836 20.1065 3.92501 19.8917C3.88596 19.7355 3.78832 19.5012 3.65163 19.4426C1.67936 18.6029 0.624878 17.0016 0.0390549 15.0294C0.0390549 14.385 0.0390549 13.721 0.0390549 13.0766C1.65983 9.11256 3.00723 8.19477 7.32279 8.19477C17.9262 8.19477 28.5296 8.19477 39.1135 8.19477C39.4845 8.19477 39.8555 8.19477 40.1094 8.19477C40.2851 6.84737 40.2851 5.63667 40.5975 4.48455C41.2224 2.19984 42.9994 1.06725 45.1474 0.40332ZM7.92814 19.9308C7.92814 35.9237 7.92814 51.8581 7.92814 67.7534C36.0672 67.7534 64.1281 67.7534 92.1695 67.7534C92.1695 51.78 92.1695 35.8651 92.1695 19.9308C64.0695 19.9308 36.0281 19.9308 7.92814 19.9308ZM50.0293 12.1003C35.618 12.1003 21.1873 12.1003 6.77602 12.1003C6.42453 12.1003 6.05351 12.0807 5.70201 12.1393C4.68659 12.2955 3.96407 13.0962 3.96407 14.053C3.96407 15.0098 4.68659 15.8105 5.72154 15.9667C6.01445 16.0057 6.30736 16.0057 6.60027 16.0057C35.5595 16.0057 64.5187 16.0057 93.4974 16.0057C93.8879 16.0057 94.2785 15.9862 94.6495 15.9081C95.5282 15.6933 96.114 14.9122 96.114 14.0725C96.114 13.2133 95.5282 12.4322 94.6495 12.2369C94.2199 12.1393 93.7512 12.1393 93.3021 12.1393C78.8518 12.1003 64.4405 12.1003 50.0293 12.1003ZM50.0684 71.737C35.618 71.737 21.1677 71.737 6.71744 71.737C4.94044 71.737 3.9836 72.3815 3.94454 73.6507C3.90549 74.9395 4.90139 75.6425 6.71744 75.6425C35.579 75.6425 64.4405 75.6425 93.3216 75.6425C95.0986 75.6425 96.0555 74.9981 96.0945 73.7288C96.1336 72.44 95.1377 71.737 93.3216 71.737C78.9104 71.737 64.4796 71.737 50.0684 71.737ZM55.8875 8.15571C55.8875 7.49178 55.9071 6.92548 55.8875 6.33966C55.8289 5.10943 55.0869 4.32834 53.8567 4.30881C51.2986 4.26975 48.721 4.26975 46.1629 4.30881C45.0498 4.32834 44.3273 5.03132 44.2101 6.10533C44.1515 6.76926 44.1906 7.4332 44.1906 8.13618C48.0961 8.15571 51.9235 8.15571 55.8875 8.15571ZM51.9625 94.3303C51.9625 93.3149 51.0252 92.3971 50.0098 92.4166C48.9943 92.4166 48.0765 93.3539 48.0765 94.3693C48.0765 95.3848 49.0139 96.3026 50.0293 96.283C51.0642 96.2635 51.982 95.3457 51.9625 94.3303Z" fill="#212833"/>
<path d="M42.1792 44.6918C40.0898 46.7813 38.0394 48.8121 36.0281 50.882C35.8719 51.0382 35.9305 51.4874 36.0086 51.7608C36.9459 54.768 35.5399 57.8533 32.728 59.0054C29.877 60.1771 26.6354 58.9859 25.2685 56.1935C24.175 53.9283 24.4874 51.7803 26.0691 49.8275C27.4946 48.0896 29.9941 47.3476 32.1617 48.0701C32.8256 48.2849 33.1966 48.1872 33.6653 47.699C35.6376 45.6682 37.6684 43.6959 39.6602 41.7041C41.984 39.3804 42.4136 39.3804 44.6983 41.6651C47.686 44.6528 50.6932 47.6405 53.6809 50.6086C53.72 50.6477 53.7785 50.6867 53.72 50.6282C59.9102 44.4575 66.0808 38.3063 72.1929 32.1943C71.9781 32.1747 71.5485 32.1747 71.158 32.0966C70.2011 31.9014 69.5372 31.0617 69.5567 30.1634C69.5762 29.2847 70.2402 28.3864 71.158 28.3474C73.3255 28.2692 75.5126 28.2497 77.6801 28.3474C78.676 28.3864 79.2618 29.2456 79.2814 30.3587C79.3204 32.2138 79.3204 34.0689 79.2814 35.9045C79.2618 37.1152 78.4417 37.9549 77.3872 37.9744C76.2937 37.9939 75.4735 37.1542 75.3954 35.8849C75.3759 35.6506 75.3759 35.4358 75.3564 35.2015C75.3564 35.182 75.3173 35.1624 75.2197 35.1234C74.9853 35.3382 74.7315 35.5725 74.4776 35.8068C68.2874 41.9775 62.0972 48.1677 55.907 54.3384C54.3253 55.9201 53.4856 55.9201 51.9039 54.3384C48.9357 51.3702 45.9676 48.4216 42.9994 45.4534C42.7846 45.2386 42.5112 45.0043 42.1792 44.6918ZM32.4351 53.5963C32.4155 52.5809 31.4977 51.6631 30.4823 51.6826C29.4669 51.7022 28.5491 52.62 28.5686 53.6354C28.5882 54.6508 29.5059 55.5686 30.5214 55.5491C31.5368 55.5295 32.4546 54.6118 32.4351 53.5963Z" fill="#212833"/>
<path d="M16.2469 39.9853C16.2469 43.1293 16.2665 46.2927 16.2469 49.4366C16.2274 51.116 14.8019 52.1314 13.4545 51.4284C12.5562 50.9598 12.361 50.1396 12.361 49.2023C12.3805 43.266 12.361 37.3101 12.361 31.3737C12.361 31.0418 12.3414 30.7293 12.361 30.3974C12.4196 29.1281 13.2202 28.2689 14.3332 28.2884C15.4268 28.2884 16.2469 29.1671 16.2665 30.4364C16.2665 33.6194 16.2469 36.8024 16.2469 39.9853Z" fill="#212833"/>
<path d="M26.4986 32.741C26.0495 33.3268 25.7566 33.8345 25.366 34.2055C24.4287 35.1038 23.2961 35.1428 22.4955 34.3813C21.6753 33.5806 21.7144 32.4285 22.6517 31.4326C23.0032 31.0616 23.4328 30.7687 24.1553 30.1633C23.5304 29.6947 23.0423 29.4213 22.6517 29.0307C21.6949 28.0544 21.6558 26.9022 22.476 26.1016C23.2961 25.301 24.4287 25.3596 25.4246 26.3164C25.7956 26.6679 26.0495 27.1366 26.3619 27.5467C26.5181 27.5467 26.6548 27.5662 26.811 27.5662C27.143 27.1366 27.4164 26.6484 27.8069 26.2578C28.7443 25.3596 29.8769 25.3205 30.6775 26.0821C31.4976 26.8827 31.4586 28.0348 30.5213 29.0307C30.1698 29.4018 29.7402 29.6947 29.0176 30.3C29.6425 30.7687 30.1307 31.0421 30.5213 31.4326C31.4781 32.409 31.5172 33.5611 30.697 34.3617C29.8769 35.1624 28.7443 35.0842 27.7484 34.1469C27.3969 33.7759 27.0649 33.3658 26.4986 32.741Z" fill="#212833"/>
<path d="M74.6144 57.6191C73.56 56.2718 71.6853 55.3149 73.2475 53.4207C73.8138 52.7373 74.6926 52.5811 75.4737 53.0693C76.1571 53.4989 76.7234 54.0847 77.5436 54.7877C77.8951 54.3581 78.227 53.8894 78.6566 53.4989C79.5939 52.6201 80.7656 52.6201 81.5272 53.4207C82.2692 54.2018 82.2497 55.2954 81.41 56.2132C81.039 56.6232 80.5898 56.9357 80.0626 57.3848C80.5703 57.9121 80.9804 58.3026 81.3709 58.7322C82.2497 59.7086 82.2887 60.8216 81.5076 61.6027C80.7265 62.4034 79.5744 62.3838 78.6371 61.4856C78.2466 61.1146 77.9341 60.6459 77.4069 59.982C76.8601 60.6264 76.5281 61.1146 76.0985 61.5051C75.1612 62.3838 73.9896 62.3838 73.228 61.5832C72.486 60.8021 72.5055 59.7086 73.3452 58.7908C73.6967 58.3807 74.1458 58.0488 74.6144 57.6191Z" fill="#212833"/>
<path d="M16.2273 57.541C16.2078 58.5759 15.2704 59.4546 14.255 59.4351C13.2201 59.4156 12.3218 58.4978 12.3608 57.4628C12.3804 56.4279 13.3177 55.5492 14.3331 55.5687C15.3485 55.5882 16.2468 56.5255 16.2273 57.541Z" fill="#212833"/>
</svg>
